<?xml version="1.0" encoding="iso-8859-1"?>
<!-- Uploaded to: SVG Repo, www.svgrepo.com, Generator: SVG Repo Mixer Tools -->
<svg fill="#000000" height="800px" width="800px" version="1.1" id="Layer_1" xmlns="http://www.w3.org/2000/svg" xmlns:xlink="http://www.w3.org/1999/xlink" 
	 viewBox="0 0 512 512" xml:space="preserve">
<g>
	<g>
		<path d="M501.201,446.737h-30.766v-74.586c0-5.149-4.175-9.324-9.324-9.324h-40.01V58.044C421.102,26.039,395.063,0,363.057,0
			H148.943c-32.006,0-58.046,26.039-58.046,58.044v304.782H50.888c-5.149,0-9.324,4.175-9.324,9.324v74.586H10.799
			c-5.149,0-9.324,4.175-9.324,9.324v46.616c0,5.149,4.174,9.324,9.324,9.324h490.403c5.149,0,9.324-4.175,9.324-9.324V456.06
			C510.525,450.911,506.35,446.737,501.201,446.737z M109.544,58.044c0-13.539,6.866-25.503,17.299-32.598v52.075
			c0,5.149,4.174,9.324,9.324,9.324c5.149,0,9.324-4.174,9.324-9.324V18.808c1.139-0.099,2.289-0.16,3.452-0.16h5.25v36.497
			c0,5.149,4.175,9.324,9.324,9.324s9.324-4.175,9.324-9.324V18.647h190.218c21.724,0,39.397,17.674,39.397,39.397v304.782h-12.061
			V239.365c0-5.149-4.175-9.324-9.324-9.324s-9.324,4.175-9.324,9.324v123.462h-8.702v-60.061c0-5.149-4.175-9.324-9.324-9.324
			s-9.324,4.174-9.324,9.324v60.061h-40.701c-0.081-0.001-0.162,0-0.242,0h-44.038c-0.071,0-0.14-0.001-0.211,0H200.19v-24.009
			c0-5.149-4.174-9.324-9.324-9.324c-5.149,0-9.324,4.175-9.324,9.324v24.009h-71.998V58.044z M294.826,381.474
			c-1.297,6.201-6.804,10.874-13.384,10.874s-12.089-4.673-13.384-10.874H294.826z M60.212,381.474H77.01
			c-2.795,7.806-8.992,14.003-16.798,16.798V381.474z M60.212,417.596c18.112-3.711,32.411-18.01,36.12-36.12h152.916
			c1.425,16.515,15.314,29.521,32.193,29.521s30.768-13.006,32.193-29.521h138.153v65.262h-22.704
			c-1.825-22.506-20.715-40.265-43.688-40.265c-22.967,0-41.852,17.76-43.676,40.265H60.212V417.596z M410.311,446.737h-49.818
			c1.743-12.199,12.23-21.617,24.903-21.617C398.075,425.119,408.568,434.537,410.311,446.737z M491.878,493.353L491.878,493.353
			H20.122v-27.969h471.755V493.353z"/>
	</g>
</g>
<g>
	<g>
		<path d="M337.054,111.1h-54.949V60.755c0-5.149-4.175-9.324-9.324-9.324h-33.564c-5.149,0-9.324,4.175-9.324,9.324V111.1h-54.949
			c-5.149,0-9.324,4.175-9.324,9.324v33.564c0,5.149,4.175,9.324,9.324,9.324h54.949v137.982c0,5.149,4.175,9.324,9.324,9.324
			h33.564c5.149,0,9.324-4.175,9.324-9.324V163.31h54.949c5.149,0,9.324-4.175,9.324-9.324v-33.563
			C346.378,115.275,342.203,111.1,337.054,111.1z M327.732,144.664h-54.949c-5.149,0-9.324,4.174-9.324,9.324v137.984h-14.917
			V153.987c0-5.149-4.175-9.324-9.324-9.324H184.27v-14.915h0h54.949c5.149,0,9.324-4.174,9.324-9.324V70.078h14.917v50.346
			c0,5.149,4.175,9.324,9.324,9.324h54.949V144.664z"/>
	</g>
</g>
<g>
	<g>
		<path d="M180.92,388c-14.396,0-26.106,11.712-26.106,26.106s11.711,26.106,26.106,26.106c14.396,0,26.106-11.712,26.106-26.106
			S195.315,388,180.92,388z M180.92,421.565c-4.114,0-7.459-3.347-7.459-7.459c0-4.112,3.345-7.459,7.459-7.459
			c4.114,0,7.459,3.347,7.459,7.459C188.379,418.218,185.033,421.565,180.92,421.565z"/>
	</g>
</g>
</svg>