<?xml version="1.0" encoding="iso-8859-1"?>
<!-- Uploaded to: SVG Repo, www.svgrepo.com, Generator: SVG Repo Mixer Tools -->
<svg fill="#000000" version="1.1" id="Layer_1" xmlns="http://www.w3.org/2000/svg" xmlns:xlink="http://www.w3.org/1999/xlink" 
	 viewBox="0 0 512 512" xml:space="preserve">
<g>
	<g>
		<path d="M264.821,32h-18.286c-45.37,0-81.964,37.196-81.964,82.527v146.357c0,5.054,4.094,9.143,9.143,9.143
			s9.143-4.089,9.143-9.143V114.527c0-35.25,28.388-64.241,63.679-64.241h18.286c35.29,0,64.321,28.991,64.321,64.241v146.357
			c0,5.054,4.094,9.143,9.143,9.143c5.049,0,9.143-4.089,9.143-9.143V114.527C347.429,69.196,310.192,32,264.821,32z"/>
	</g>
</g>
<g>
	<g>
		<polygon points="265.143,123.429 265.143,96 246.857,96 246.857,123.429 210.286,123.429 210.286,141.714 246.857,141.714 
			246.857,242.286 265.143,242.286 265.143,141.714 301.714,141.714 301.714,123.429 		"/>
	</g>
</g>
<g>
	<g>
		<rect x="73.143" y="297.143" width="164.571" height="18.286"/>
	</g>
</g>
<g>
	<g>
		<rect x="274.286" y="297.143" width="164.571" height="18.286"/>
	</g>
</g>
<g>
	<g>
		<rect x="45.714" y="352" width="192" height="18.286"/>
	</g>
</g>
<g>
	<g>
		<rect x="274.286" y="352" width="192" height="18.286"/>
	</g>
</g>
<g>
	<g>
		<rect x="18.286" y="406.857" width="219.429" height="18.286"/>
	</g>
</g>
<g>
	<g>
		<rect x="274.286" y="406.857" width="219.429" height="18.286"/>
	</g>
</g>
<g>
	<g>
		<rect y="461.714" width="237.714" height="18.286"/>
	</g>
</g>
<g>
	<g>
		<rect x="274.286" y="461.714" width="237.714" height="18.286"/>
	</g>
</g>
</svg>