<?xml version="1.0" ?>
<!-- Uploaded to: SVG Repo, www.svgrepo.com, Generator: SVG Repo Mixer Tools -->
<svg width="800px" height="800px" viewBox="0 0 512 512" enable-background="new 0 0 512 512" id="flat" version="1.1" xml:space="preserve" xmlns="http://www.w3.org/2000/svg" xmlns:xlink="http://www.w3.org/1999/xlink">
<path d="M429.663,344H82.337C67.792,344,56,355.792,56,370.337V416h400v-45.663C456,355.792,444.208,344,429.663,344  z" fill="#9EA6D1"/>
<path d="M420.305,136c-14.383,0-23.737-17.298-17.305-32h-3.695c-14.383,0-23.737-17.298-17.305-32h0  c-15.19,0-29.544-7.53-39.762-20.376C320.619,24.443,289.575,8,256,8l0,0c-33.575,0-64.619,16.443-86.238,43.624  C159.544,64.47,145.19,72,130,72h0c6.432,14.702-2.922,32-17.305,32H109c6.432,14.702-2.922,32-17.305,32H88v312h336V136H420.305z" fill="#4D5166"/>
<path d="M472,488H40v-65.32C40,410.154,50.154,400,62.68,400H449.32c12.526,0,22.68,10.154,22.68,22.68V488z" fill="#353846"/>
<path d="M504,504H8l0,0c69.304-52.164,150.732-80,234.025-80h27.95C353.267,424,434.696,451.836,504,504L504,504z" fill="#B99A53"/>
<polygon fill="#E65C64" points="344,96 280,96 280,40 232,40 232,96 168,96 168,144 232,144 232,272 280,272 280,144 344,144 "/>
<g>
<path d="M256,376c-4.418,0-8-3.582-8-8v-64c0-4.418,3.582-8,8-8s8,3.582,8,8v64C264,372.418,260.418,376,256,376z" fill="#9EA6D1"/>
</g>
<g>
<path d="M272,312h-32c-4.418,0-8-3.582-8-8s3.582-8,8-8h32c4.418,0,8,3.582,8,8S276.418,312,272,312z" fill="#9EA6D1"/>
</g>
<g>
<path d="M272,376h-32c-4.418,0-8-3.582-8-8s3.582-8,8-8h32c4.418,0,8,3.582,8,8S276.418,376,272,376z" fill="#9EA6D1"/>
</g>
<g>
<path d="M184,344h-40c-4.418,0-8-3.582-8-8v-32c0-4.418,3.582-8,8-8h40c13.233,0,24,10.766,24,24   S197.233,344,184,344z M152,328h32c4.411,0,8-3.589,8-8s-3.589-8-8-8h-32V328z" fill="#9EA6D1"/>
</g>
<g>
<path d="M352,344h-40c-4.418,0-8-3.582-8-8v-32c0-4.418,3.582-8,8-8h40c13.233,0,24,10.766,24,24   S365.233,344,352,344z M320,328h32c4.411,0,8-3.589,8-8s-3.589-8-8-8h-32V328z" fill="#9EA6D1"/>
</g>
<g>
<path d="M144,376c-4.418,0-8-3.582-8-8v-32c0-4.418,3.582-8,8-8s8,3.582,8,8v32C152,372.418,148.418,376,144,376z" fill="#9EA6D1"/>
</g>
<g>
<path d="M200.006,376c-2.432,0-4.834-1.105-6.406-3.201l-24-32c-2.65-3.534-1.935-8.549,1.601-11.2   c3.531-2.65,8.547-1.936,11.2,1.6l24,32c2.65,3.534,1.935,8.549-1.601,11.2C203.361,375.479,201.677,376,200.006,376z" fill="#9EA6D1"/>
</g>
<g>
<path d="M312,376c-4.418,0-8-3.582-8-8v-32c0-4.418,3.582-8,8-8s8,3.582,8,8v32C320,372.418,316.418,376,312,376z" fill="#9EA6D1"/>
</g>
<path d="M344,232c-4.418,0-8,3.582-8,8s3.582,8,8,8h80v-16H344z" fill="#9EA6D1"/>
<path d="M312,264c-4.418,0-8,3.582-8,8s3.582,8,8,8h112v-16H312z" fill="#9EA6D1"/>
<path d="M312,200c-4.418,0-8,3.582-8,8s3.582,8,8,8h112v-16H312z" fill="#9EA6D1"/>
<path d="M352,168c-4.418,0-8,3.582-8,8s3.582,8,8,8h72v-16H352z" fill="#9EA6D1"/>
<path d="M168,232H88v16h80c4.418,0,8-3.582,8-8S172.418,232,168,232z" fill="#9EA6D1"/>
<path d="M200,264H88v16h112c4.418,0,8-3.582,8-8S204.418,264,200,264z" fill="#9EA6D1"/>
<path d="M200,200H88v16h112c4.418,0,8-3.582,8-8S204.418,200,200,200z" fill="#9EA6D1"/>
<path d="M160,168H88v16h72c4.418,0,8-3.582,8-8S164.418,168,160,168z" fill="#9EA6D1"/>
</svg>